Coordinates
version=1
nRows=10
nColumns=40
inDegrees=yes

Units are S.I. units (second, meters, Newtons, ...)
If the header above contains a line with 'inDegrees', this indicates whether rotational values are in degrees (yes) or radians (no).

endheader
time	pelvis_tilt	pelvis_list	pelvis_rotation	pelvis_tx	pelvis_ty	pelvis_tz	hip_flexion_r	hip_adduction_r	hip_rotation_r	knee_angle_r	knee_angle_r_beta	ankle_angle_r	subtalar_angle_r	mtp_angle_r	hip_flexion_l	hip_adduction_l	hip_rotation_l	knee_angle_l	knee_angle_l_beta	ankle_angle_l	subtalar_angle_l	mtp_angle_l	lumbar_extension	lumbar_bending	lumbar_rotation	arm_flex_r	arm_add_r	arm_rot_r	elbow_flex_r	pro_sup_r	wrist_flex_r	wrist_dev_r	arm_flex_l	arm_add_l	arm_rot_l	elbow_flex_l	pro_sup_l	wrist_flex_l	wrist_dev_l
      2.80000000	    -12.46216447	     -2.30038270	     -4.71638451	     -0.26620571	      0.95944170	     -1.03842745	     27.43091204	     -3.48335349	     -3.19860301	    111.40043579	      1.94430439	     -5.13242240	      0.00000000	      0.00000000	     42.40448930	      0.24859042	     -5.41478006	     55.76979795	      0.97336660	     19.78658386	      0.00000000	      0.00000000	     -0.34795252	     -0.52983658	      3.53388659	     89.91642250	    -14.19292457	     29.50456544	     36.97755069	     85.73591382	      0.00000000	      0.00000000	     89.92581161	    -23.08701295	     28.59358701	     39.46428390	     85.38228839	      0.00000000	      0.00000000
      2.80500000	    -12.56726278	     -2.23417074	     -4.71487431	     -0.26740566	      0.95812202	     -1.03834687	     27.38523700	     -3.45278861	     -3.25869516	    111.40874520	      1.94444942	     -5.33566124	      0.00000000	      0.00000000	     42.77231642	      0.33906597	     -5.33597432	     56.07652642	      0.97872002	     20.10303083	      0.00000000	      0.00000000	     -0.43847929	     -0.61106917	      3.58234728	     89.91808739	    -14.21037837	     29.16044741	     37.16866105	     85.71701885	      0.00000000	      0.00000000	     89.92703715	    -22.96739500	     28.23483338	     39.62553617	     85.28709308	      0.00000000	      0.00000000
      2.81000000	    -12.85550942	     -2.09318238	     -4.77917212	     -0.26732867	      0.95621152	     -1.03851132	     27.40169881	     -3.51811425	     -3.24598270	    111.39387493	      1.94418988	     -5.36034646	      0.00000000	      0.00000000	     43.23309233	      0.44419446	     -5.42610212	     56.34966028	      0.98348710	     20.10903187	      0.00000000	      0.00000000	     -0.20372237	     -0.69887091	      3.63236109	     89.91820393	    -14.20088734	     29.16556937	     37.16218299	     85.76810850	      0.00000000	      0.00000000	     89.92706689	    -23.02772346	     28.23248630	     39.65538003	     85.27842705	      0.00000000	      0.00000000
      2.81500000	    -12.83848052	     -1.88186073	     -4.75126969	     -0.26785911	      0.95504167	     -1.03879846	     27.15541057	     -3.70948721	     -3.23027139	    111.37722438	      1.94389928	     -5.51158025	      0.00000000	      0.00000000	     43.38467871	      0.72868979	     -5.42456112	     56.54287188	      0.98685928	     20.36064278	      0.00000000	      0.00000000	     -0.36824329	     -0.92538945	      3.65584895	     89.91929930	    -14.22608789	     28.92735293	     37.28117934	     85.73029687	      0.00000000	      0.00000000	     89.92776775	    -22.95974197	     27.98484521	     39.80431893	     85.37542650	      0.00000000	      0.00000000
      2.82000000	    -12.72037744	     -1.38625330	     -5.11865183	     -0.26718586	      0.95402938	     -1.03861494	     26.77508225	     -4.08280014	     -2.75886445	    111.37124055	      1.94379484	     -5.50523482	      0.00000000	      0.00000000	     43.22078489	      0.96771841	     -6.01109912	     56.57404624	      0.98740338	     20.63248035	      0.00000000	      0.00000000	     -0.50835695	     -1.44438082	      4.04304474	     89.91932577	    -14.23932809	     28.85253773	     37.29765336	     85.72939726	      0.00000000	      0.00000000	     89.92767247	    -22.95983677	     27.96665406	     39.80032443	     85.39514992	      0.00000000	      0.00000000
      2.82500000	    -13.33924661	     -1.79438564	     -4.78801315	     -0.26906854	      0.95135023	     -1.03893593	     27.23679434	     -3.60986295	     -3.35197078	    111.41760672	      1.94460408	     -5.61217629	      0.00000000	      0.00000000	     44.38613320	      0.86958723	     -5.23334428	     57.22276709	      0.99872569	     20.73621384	      0.00000000	      0.00000000	     -0.08883023	     -0.95639166	      3.78627176	     89.92100106	    -14.30767872	     28.57381059	     37.51245375	     85.68047327	      0.00000000	      0.00000000	     89.92882531	    -22.86124305	     27.63385133	     40.05064326	     85.35623644	      0.00000000	      0.00000000
      2.83000000	    -13.37584382	     -1.58800929	     -4.79287776	     -0.26954141	      0.95023447	     -1.03914327	     27.03901395	     -3.74555459	     -3.32465394	    111.37956889	      1.94394020	     -5.70984312	      0.00000000	      0.00000000	     44.57042749	      1.07715914	     -5.34832845	     57.40025868	      1.00182351	     20.73929404	      0.00000000	      0.00000000	     -0.19776888	     -1.16182775	      3.80481856	     89.92202094	    -14.27910017	     28.27497921	     37.62748478	     85.70526326	      0.00000000	      0.00000000	     89.92946101	    -22.81521932	     27.36944199	     40.12636738	     85.33382155	      0.00000000	      0.00000000
      2.83500000	    -13.71346265	     -1.67685636	     -4.76038016	     -0.27007383	      0.94826301	     -1.03915624	     27.14118867	     -3.53959834	     -3.50143214	    111.35960385	      1.94359174	     -5.79927689	      0.00000000	      0.00000000	     45.19700545	      1.05080143	     -5.13967210	     57.78692915	      1.00857218	     20.75516345	      0.00000000	      0.00000000	      0.02778590	     -1.03164396	      3.75135819	     89.92330192	    -14.31725995	     28.42872365	     37.78707855	     85.40604450	      0.00000000	      0.00000000	     89.92980677	    -22.87369803	     27.33250214	     40.28681983	     85.05774579	      0.00000000	      0.00000000
      2.84000000	    -13.64625948	     -1.36807639	     -4.83995693	     -0.27040641	      0.94723016	     -1.03929450	     26.84996342	     -3.79261382	     -3.37008646	    111.35669636	      1.94354100	     -5.85543966	      0.00000000	      0.00000000	     45.22403958	      1.32500360	     -5.33635190	     57.90987550	      1.01071800	     20.97394749	      0.00000000	      0.00000000	     -0.18923512	     -1.36797901	      3.90583128	     89.92342192	    -14.31931385	     27.94557098	     37.86785169	     85.66658620	      0.00000000	      0.00000000	     89.93061142	    -22.74993619	     27.00133185	     40.35740734	     85.31275113	      0.00000000	      0.00000000
      2.84500000	    -13.98424164	     -1.34711613	     -4.79918593	     -0.27107964	      0.94539709	     -1.03950117	     27.00143068	     -3.72216648	     -3.47322243	    111.36399980	      1.94366846	     -5.97145470	      0.00000000	      0.00000000	     45.81169324	      1.42017049	     -5.15945025	     58.21644459	      1.01606864	     21.05118236	      0.00000000	      0.00000000	      0.02285363	     -1.34314303	      3.87601561	     89.92417364	    -14.34696311	     27.86761435	     37.95042426	     85.73686218	      0.00000000	      0.00000000	     89.93092446	    -22.76618600	     26.75951900	     40.50240663	     85.43990304	      0.00000000	      0.00000000
